<?xml version="1.0" encoding="UTF-8"?>
<svg xmlns="http://www.w3.org/2000/svg" xmlns:xlink="http://www.w3.org/1999/xlink" width="108pt" height="72pt" viewBox="0 0 108 72" version="1.1">
<g id="surface93">
<rect x="0" y="0" width="108" height="72" style="fill:rgb(100%,100%,100%);fill-opacity:1;stroke:none;"/>
<path style="fill:none;stroke-width:0.75;stroke-linecap:round;stroke-linejoin:round;stroke:rgb(0%,0%,0%);stroke-opacity:1;stroke-miterlimit:10;" d="M 5.332031 68 L 6.308594 65.464844 L 7.28125 62.980469 L 8.253906 60.550781 L 9.226562 58.167969 L 10.199219 55.839844 L 11.171875 53.5625 L 12.148438 51.335938 L 13.121094 49.160156 L 14.09375 47.035156 L 15.066406 44.960938 L 16.039062 42.9375 L 17.011719 40.964844 L 17.988281 39.046875 L 18.960938 37.175781 L 19.933594 35.359375 L 20.90625 33.59375 L 21.878906 31.878906 L 22.851562 30.214844 L 23.828125 28.601562 L 24.800781 27.039062 L 25.773438 25.53125 L 26.746094 24.070312 L 27.71875 22.664062 L 28.691406 21.304688 L 29.667969 20 L 30.640625 18.746094 L 31.613281 17.542969 L 32.585938 16.390625 L 33.558594 15.289062 L 34.535156 14.238281 L 35.507812 13.242188 L 36.480469 12.292969 L 37.453125 11.398438 L 38.425781 10.554688 L 39.398438 9.761719 L 40.375 9.019531 L 41.347656 8.328125 L 42.320312 7.6875 L 43.292969 7.097656 L 44.265625 6.558594 L 45.238281 6.074219 L 46.214844 5.636719 L 47.1875 5.253906 L 48.160156 4.921875 L 49.132812 4.640625 L 50.105469 4.410156 L 51.078125 4.230469 L 52.054688 4.101562 L 53.027344 4.027344 L 54 4 L 54.972656 4.027344 L 55.945312 4.101562 L 56.921875 4.230469 L 57.894531 4.410156 L 58.867188 4.640625 L 59.839844 4.921875 L 60.8125 5.253906 L 61.785156 5.636719 L 62.761719 6.074219 L 63.734375 6.558594 L 64.707031 7.097656 L 65.679688 7.6875 L 66.652344 8.328125 L 67.625 9.019531 L 68.601562 9.761719 L 69.574219 10.554688 L 70.546875 11.398438 L 71.519531 12.292969 L 72.492188 13.242188 L 73.464844 14.238281 L 74.441406 15.289062 L 75.414062 16.390625 L 76.386719 17.542969 L 77.359375 18.746094 L 78.332031 20 L 79.308594 21.304688 L 80.28125 22.664062 L 81.253906 24.070312 L 82.226562 25.53125 L 83.199219 27.039062 L 84.171875 28.601562 L 85.148438 30.214844 L 86.121094 31.878906 L 87.09375 33.59375 L 88.066406 35.359375 L 89.039062 37.175781 L 90.011719 39.046875 L 90.988281 40.964844 L 91.960938 42.9375 L 92.933594 44.960938 L 93.90625 47.035156 L 94.878906 49.160156 L 95.851562 51.335938 L 96.828125 53.5625 L 97.800781 55.839844 L 98.773438 58.167969 L 99.746094 60.550781 L 100.71875 62.980469 L 101.691406 65.464844 L 102.667969 68 "/>
<path style="fill:none;stroke-width:0.75;stroke-linecap:round;stroke-linejoin:round;stroke:rgb(0%,0%,0%);stroke-opacity:1;stroke-miterlimit:10;" d="M 1.441406 70.558594 L 106.558594 70.558594 L 106.558594 1.441406 L 1.441406 1.441406 L 1.441406 70.558594 "/>
</g>
</svg>
