<?xml version="1.0" encoding="UTF-8"?>
<svg xmlns="http://www.w3.org/2000/svg" xmlns:xlink="http://www.w3.org/1999/xlink" width="108pt" height="72pt" viewBox="0 0 108 72" version="1.1">
<g id="surface141">
<rect x="0" y="0" width="108" height="72" style="fill:rgb(100%,100%,100%);fill-opacity:1;stroke:none;"/>
<path style="fill:none;stroke-width:0.75;stroke-linecap:round;stroke-linejoin:round;stroke:rgb(0%,0%,0%);stroke-opacity:1;stroke-miterlimit:10;" d="M 6.308594 4 L 7.28125 34.179688 L 8.253906 44.835938 L 9.226562 50.355469 L 10.199219 53.753906 L 11.171875 56.066406 L 12.148438 57.746094 L 13.121094 59.023438 L 14.09375 60.03125 L 15.066406 60.84375 L 16.039062 61.515625 L 17.011719 62.082031 L 17.988281 62.566406 L 18.960938 62.984375 L 19.933594 63.347656 L 20.90625 63.667969 L 21.878906 63.953125 L 22.851562 64.207031 L 23.828125 64.4375 L 24.800781 64.644531 L 25.773438 64.832031 L 26.746094 65.003906 L 27.71875 65.160156 L 28.691406 65.308594 L 29.667969 65.441406 L 30.640625 65.566406 L 31.613281 65.683594 L 32.585938 65.789062 L 33.558594 65.890625 L 34.535156 65.984375 L 35.507812 66.074219 L 36.480469 66.15625 L 37.453125 66.234375 L 38.425781 66.308594 L 39.398438 66.378906 L 40.375 66.445312 L 42.320312 66.570312 L 44.265625 66.679688 L 45.238281 66.730469 L 46.214844 66.78125 L 47.1875 66.828125 L 48.160156 66.871094 L 49.132812 66.917969 L 51.078125 66.996094 L 52.054688 67.035156 L 55.945312 67.175781 L 56.921875 67.207031 L 57.894531 67.234375 L 58.867188 67.265625 L 61.785156 67.347656 L 62.761719 67.375 L 67.625 67.492188 L 68.601562 67.511719 L 69.574219 67.53125 L 70.546875 67.554688 L 71.519531 67.574219 L 72.492188 67.589844 L 73.464844 67.609375 L 74.441406 67.628906 L 75.414062 67.644531 L 76.386719 67.664062 L 78.332031 67.695312 L 79.308594 67.710938 L 82.226562 67.757812 L 83.199219 67.769531 L 84.171875 67.785156 L 85.148438 67.796875 L 86.121094 67.8125 L 88.066406 67.835938 L 89.039062 67.851562 L 90.011719 67.863281 L 90.988281 67.875 L 93.90625 67.910156 L 94.878906 67.917969 L 95.851562 67.929688 L 96.828125 67.941406 L 97.800781 67.953125 L 98.773438 67.960938 L 99.746094 67.972656 L 100.71875 67.980469 L 101.691406 67.992188 L 102.667969 68 "/>
<path style="fill:none;stroke-width:0.75;stroke-linecap:round;stroke-linejoin:round;stroke:rgb(0%,0%,0%);stroke-opacity:1;stroke-miterlimit:10;" d="M 1.441406 70.558594 L 106.558594 70.558594 L 106.558594 1.441406 L 1.441406 1.441406 L 1.441406 70.558594 "/>
</g>
</svg>
